<?xml version="1.0" encoding="utf-8"?>
<!-- Generator: Adobe Illustrator 27.4.0, SVG Export Plug-In . SVG Version: 6.00 Build 0)  -->
<svg version="1.1" id="Layer_1" xmlns="http://www.w3.org/2000/svg" xmlns:xlink="http://www.w3.org/1999/xlink" x="0px" y="0px"
	 viewBox="0 0 496.21 82.12" style="enable-background:new 0 0 496.21 82.12;" xml:space="preserve">
<style type="text/css">
	.st0{fill:#F47920;}
	.st1{fill:#FFFFFF;}
</style>
<g>
	<path class="st0" d="M273.6,19.08v-0.18h-31.04v3.07h0.16c5.09,0.35,5.65,0.05,5.65,6.01v27.06c0,5.86-0.44,6.37-5.83,6.73
		l-0.16,0.01v2.34h19.6v-2.33l-0.16-0.02c-6.36-0.55-6.2-0.92-6.2-6.73V43.29l6.18-0.02c6.02,0,6.37,0.38,7.27,5.08l0.03,0.14h2.32
		V34.54h-2.27l-0.07,0.49c-0.77,3.88-1.19,4.42-7.27,4.42l-6.18-0.14V24.89c0-2.07,0.94-2.58,2.88-2.58h3.67
		c4.94,0,6.59-0.02,7.66,1.77c0.93,1.5,1.45,2.84,1.97,5.46l2.55-0.04C274.36,29.5,273.6,21.45,273.6,19.08z"/>
	<path class="st0" d="M304.3,56.31v-23.1l-11.61,1.32v1.96l0.15,0.02c4.61,0.53,4.93,0.83,4.93,4.55v16.27
		c-2,1.98-4.27,2.98-6.73,2.98c-2.57,0-5.64-1.26-5.64-7.27V43.6c0-3.67,0.04-10.39,0.04-10.39l-10.56,1.32v1.95l0.14,0.03
		c3.75,0.72,4.03,0.86,4.03,4.55v13.8c0,6.67,3.09,10.35,8.71,10.35c1.8,0,3.45-0.7,5.54-1.84c1.32-0.79,2.43-1.67,3.51-2.51
		c0.32-0.25,0.63-0.5,0.95-0.74v4.46l0.69,0.46l10.74-2.59v-1.94l-1.98-0.2C304.85,60.15,304.3,59.76,304.3,56.31z"/>
	<path class="st0" d="M367.9,43.42c0-5.7-5-10.71-10.71-10.71c-3.52,0-7.18,1.83-10.3,5.14c-2.09,2.37-4.58,6.43-4.58,12.28
		c0,7.4,4.74,14.89,13.8,14.89c2.99,0,7.6-1.83,11.58-6.97l0.08-0.11l-1.48-1.9l-0.14,0.14c-2.22,2.22-4.88,3.4-7.68,3.4
		c-4.47,0-9.74-3.29-9.99-12.55c7.74-0.18,16.47-0.89,17.67-1.09C367.47,45.57,367.9,44.95,367.9,43.42z M355.74,35.6
		c3.7,0,5.64,3.38,5.64,6.73c0,0.93-0.4,1.28-1.47,1.28c-3.74,0.18-7.36,0.18-10.87,0.18C349.92,38.88,352.6,35.6,355.74,35.6z"/>
	<path class="st0" d="M413.57,59.62c-1.11,0.67-2.57,1.06-3.9,1.06c-3.45,0-3.82-4.45-3.82-6.36V36.88h7.19l2.19-3.94h-9.39v-8.91
		l-1.13-0.23l-5.21,4.84v4.3h-4.75l-1.47,2.86l0.51,0.9h5.72v19.8c0,5.58,2.51,8.53,7.26,8.53c0.72,0,1.81-0.34,2.98-0.93l4.67-2.43
		l-0.65-2.17L413.57,59.62z"/>
	<path class="st0" d="M478.05,61.95c-3.92-0.36-4.2-0.69-4.2-5.09V43.6c0-6.71-3.39-10.71-9.08-10.71c-2.11,0-3.81,0.81-5.73,2.03
		c-0.43,0.29-0.85,0.56-1.26,0.83c-1.04,0.68-2.03,1.33-3.01,2.05v-5.36l-10.52,3.02v1.75l0.14,0.03c3.49,0.7,3.86,0.77,3.86,5.1
		v14.35c0,4.44-0.27,4.74-4.75,5.27l-0.15,0.02v2.15h15.6v-2.15l-0.16-0.01c-3.92-0.36-4.2-0.69-4.2-5.09V40.6
		c2.63-2.14,4.89-3.18,6.91-3.18c3.91,0,5.82,2.44,5.82,7.45v11.44c0,4.58-0.26,5.26-4.2,5.64l-0.16,0.02v2.15h15.24v-2.15
		L478.05,61.95z"/>
	<path class="st0" d="M392.19,35.04c-0.71-1.31-2.18-2.33-4.19-2.33c-2.5,0-5.19,2.29-8,6.82v-6.89l-10.52,2.83v1.75l0.14,0.03
		c3.75,0.71,4.03,0.87,4.03,5.1v14.35c0,4.26-0.43,4.73-4.56,5.09l-0.16,0.02v2.15h16.69v-2.16l-0.16-0.01
		c-5.16-0.35-5.47-0.64-5.47-5.09V44c1.28-3.64,3.44-5.3,4.91-5.3c1.22,0,1.93,0.54,2.97,1.4c0.35,0.28,0.67,0.64,0.86,0.88
		L392.19,35.04z"/>
	<path class="st0" d="M444.37,49.03c-0.59,11.42-8.94,16.35-16.09,15.98c-9.9-0.51-15.01-8.54-14.61-16.28
		c0.6-11.61,9.86-16.3,16.46-15.96C438.76,33.04,444.81,40.56,444.37,49.03z M420.41,46.68c-0.46,8.84,3.22,15.69,8.9,15.98
		c4.04,0.21,8.06-2.54,8.56-12.3c0.44-8.48-2.91-15.12-8.78-15.42C425.06,34.73,420.82,38.76,420.41,46.68z"/>
	<path class="st0" d="M341.85,60.16c-0.88,0.39-2.52,0.87-3.92,0.87c-1.74,0-3.81-0.85-3.81-5.81V16.29l-11.07,3.85v1.95l0.16,0.01
		c4.22,0.35,4.56,0.01,4.56,4.54v31.49c0,0.37,0.06,1.26,0.19,1.96c0.73,3.91,3.05,5.48,7.07,5.48c0.68,0,1.73-0.16,3.16-0.68
		c1.44-0.52,4.95-2.29,4.95-2.29v-3.03L341.85,60.16z"/>
	<path class="st0" d="M325.43,60.16c-0.88,0.39-2.52,0.87-3.92,0.87c-1.74,0-3.81-0.85-3.81-5.81V16.29l-11.07,3.85v1.95l0.16,0.01
		c4.22,0.35,4.56,0.01,4.56,4.54v31.49c0,0.37,0.06,1.26,0.19,1.96c0.73,3.91,3.05,5.48,7.07,5.48c0.68,0,1.73-0.16,3.16-0.68
		c1.43-0.52,4.95-2.29,4.95-2.29v-3.03L325.43,60.16z"/>
</g>
<g>
	<path class="st1" d="M61.86,50.75L57.48,63.1c-1.8,0.41-8.15,1.8-12.84,1.8c-18.37,0-25.96-11.94-25.96-22.92
		c0-14.22,10.84-24.03,27.34-24.03c5.59,0,10.7,1.45,12.57,1.86l1.59,11.25l-2.7,0c-2.28-8.15-7.45-10.08-12.77-10.08
		c-10.01,0-16.92,9.39-16.92,19.61c0,12.7,8.22,21.06,17.61,21.06c5.73,0,9.81-3.92,13.33-10.9L61.86,50.75z"/>
	<path class="st1" d="M130.92,37.82c-6.37-3.08-9.21-5.23-9.21-9.83c0-3.62,2.4-6.86,7.77-6.86c5.87,0,8.04,3.98,9.52,8.72
		l0.05,0.15l2.9-0.1l-0.06-0.48c-0.54-4.05-0.94-6.84-1.36-9.63l-0.02-0.11l-0.11-0.03c-2.88-0.83-6-1.64-9.57-1.64
		c-9.1,0-15.71,5.34-15.71,12.71c0,7.8,7.12,11.25,12.32,13.78c6.1,2.95,9.41,5.42,9.41,10.01c0,4.89-3.13,7.32-8.36,7.32
		c-2.12,0-9.23,0.08-12.03-10.41l-2.71,0.05l2,11.15l0.06,0.03c0.78,0.37,1.95,0.92,3.91,1.47c1.61,0.5,4.18,1.1,7.24,1.1
		c9.78,0,16.87-5.65,16.87-13.43C143.83,43.85,136.67,40.51,130.92,37.82z"/>
	<path class="st1" d="M190.25,58.52c-0.97,0.48-1.75,0.71-2.46,0.71c-1.45,0-2.19-1.29-2.19-3.82V42.88c0-4.19-1.03-6.86-3.33-8.67
		c-1.37-1.2-3.46-1.86-5.94-1.86c-0.01,0-0.02,0-0.02,0c-4.05,0.92-8.65,3.51-10.6,4.93c-1.51,1.13-2.43,1.88-2.43,3.05
		c0,1.77,2.11,3.26,3.44,3.26c1.29,0,2-0.53,2.35-1.76c0.58-2.13,1.11-3.62,1.97-4.48c0.55-0.73,1.63-1.2,2.76-1.2
		c3.3,0,5.27,2.79,5.27,7.46v1.37c-1.47,1.22-6.23,2.94-10.6,4.45c-3.85,1.35-5.57,3.47-5.57,6.89c0,4.19,3.33,8.71,8.71,8.71
		c1.7,0,4.2-1.72,6.62-3.38c0.42-0.29,0.84-0.58,1.25-0.86c0.22,0.97,0.75,1.85,1.63,2.74c0.89,0.88,2.36,1.5,3.57,1.5h0.05
		l6.52-4.47l-0.85-2.12L190.25,58.52z M173.7,50.3c0.73-0.36,1.84-0.88,2.92-1.37c0.95-0.43,1.92-0.88,2.64-1.23v10.53
		c-1.22,1.02-3.33,2.09-4.91,2.09c-1.89,0-4.55-1.58-4.55-5.09C169.8,52.73,171.23,51.53,173.7,50.3z"/>
	<path class="st1" d="M231.61,56.37c-2.22,2.22-4.88,3.4-7.68,3.4c-4.47,0-9.74-3.29-9.99-12.55c7.72-0.18,16.46-0.89,17.67-1.09
		c1.33-0.38,1.76-1,1.76-2.53c0-5.7-5-10.71-10.71-10.71c-3.52,0-7.18,1.83-10.3,5.14c-2.09,2.37-4.58,6.43-4.58,12.28
		c0,7.4,4.74,14.89,13.8,14.89c2.99,0,7.6-1.83,11.58-6.97l0.08-0.11l-1.48-1.9L231.61,56.37z M214.51,43.97
		c0.86-4.98,3.48-8.18,6.7-8.18c3.7,0,5.63,3.38,5.63,6.73c0,0.93-0.4,1.28-1.47,1.28C221.64,43.97,218.01,43.97,214.51,43.97z"/>
	<path class="st1" d="M161.76,59.62c-1.11,0.67-2.57,1.06-3.91,1.06c-3.45,0-3.82-4.45-3.82-6.36V36.88h7.19l2.19-3.94h-9.39v-8.91
		l-1.14-0.23l-5.21,4.84v4.3h-4.75l-1.47,2.86l0.51,0.9h5.72v19.8c0,5.58,2.51,8.53,7.26,8.53c0.72,0,1.81-0.34,2.98-0.93l4.67-2.43
		l-0.65-2.17L161.76,59.62z"/>
	<path class="st1" d="M207.89,59.62c-1.11,0.67-2.57,1.06-3.91,1.06c-3.45,0-3.82-4.45-3.82-6.36V36.88h7.19l2.19-3.94h-9.39v-8.91
		l-1.14-0.23l-5.21,4.84v4.3h-4.75l-1.47,2.86l0.51,0.9h5.72v19.8c0,5.58,2.51,8.53,7.26,8.53c0.72,0,1.81-0.34,2.98-0.93l4.67-2.43
		l-0.65-2.17L207.89,59.62z"/>
	<path class="st1" d="M89.77,58.52c-0.95,0.48-1.76,0.71-2.46,0.71c-1.45,0-2.19-1.29-2.19-3.82V42.88c0-4.19-1.03-6.86-3.33-8.67
		c-1.37-1.2-3.46-1.86-5.94-1.86c-0.01,0-0.02,0-0.02,0c-4.05,0.92-8.65,3.51-10.6,4.93c-1.51,1.13-2.43,1.88-2.43,3.05
		c0,1.77,2.11,3.26,3.44,3.26c1.29,0,2-0.53,2.35-1.76c0.58-2.13,1.11-3.62,1.97-4.48c0.55-0.73,1.63-1.2,2.77-1.2
		c3.3,0,5.27,2.79,5.27,7.46v1.37c-1.47,1.22-6.23,2.94-10.6,4.45c-3.85,1.35-5.57,3.47-5.57,6.89c0,5.38,4.52,8.71,8.71,8.71
		c1.7,0,4.2-1.72,6.61-3.38c0.43-0.29,0.85-0.59,1.26-0.86c0.22,0.97,0.74,1.85,1.63,2.74c0.89,0.88,2.36,1.5,3.57,1.5h0.05
		l6.52-4.47l-0.85-2.12L89.77,58.52z M73.22,50.3c0.73-0.36,1.84-0.88,2.92-1.37c0.95-0.43,1.92-0.88,2.64-1.23v10.53
		c-1.22,1.02-3.33,2.09-4.91,2.09c-1.89,0-4.55-1.58-4.55-5.09C69.32,52.73,70.75,51.53,73.22,50.3z"/>
	<path class="st1" d="M105.37,60.16c-0.88,0.39-2.52,0.87-3.92,0.87c-1.74,0-3.81-0.85-3.81-5.81V16.29l-11.07,3.85v1.95l0.16,0.01
		c4.22,0.35,4.56,0.01,4.56,4.54v31.49c0,0.37,0.06,1.26,0.19,1.96c0.73,3.91,3.05,5.48,7.07,5.48c0.68,0,1.73-0.16,3.16-0.68
		c1.44-0.52,4.95-2.29,4.95-2.29v-3.03L105.37,60.16z"/>
</g>
</svg>
